<svg width="20" height="21" viewBox="0 0 20 21" fill="none" xmlns="http://www.w3.org/2000/svg">
<g clip-path="url(#clip0_7134_1297)">
<path d="M4.99605 10.0625H3.32939C2.88736 10.0625 2.46344 9.8869 2.15088 9.57434C1.83831 9.26178 1.66272 8.83786 1.66272 8.39583V4.22917C1.66272 3.78714 1.83831 3.36322 2.15088 3.05066C2.46344 2.73809 2.88736 2.5625 3.32939 2.5625H16.6627C17.1047 2.5625 17.5287 2.73809 17.8412 3.05066C18.1538 3.36322 18.3294 3.78714 18.3294 4.22917V8.39583C18.3294 8.83786 18.1538 9.26178 17.8412 9.57434C17.5287 9.8869 17.1047 10.0625 16.6627 10.0625H14.9961" stroke="#24AB70" stroke-opacity="0.54" stroke-width="2" stroke-linecap="round" stroke-linejoin="round"></path>
<path d="M4.99606 6.72917H14.9961" stroke="#24AB70" stroke-opacity="0.54" stroke-width="2" stroke-linecap="round" stroke-linejoin="round"></path>
<path d="M15.2461 14.8125C15.5986 15.1812 15.8037 15.6664 15.8224 16.1761C15.8411 16.6859 15.6721 17.1848 15.3474 17.5783C15.0228 17.9718 14.5651 18.2325 14.061 18.311C13.557 18.3895 13.0416 18.2803 12.6127 18.0042C12.3338 17.8213 12.1023 17.5749 11.9372 17.2851C11.772 16.9954 11.678 16.6706 11.6627 16.3375V10.0625" stroke="#24AB70" stroke-opacity="0.54" stroke-width="2" stroke-linecap="round" stroke-linejoin="round"></path>
<path d="M5.49605 13.0625C5.29914 13.2556 5.15321 13.4945 5.07135 13.7578C4.98948 14.0212 4.97424 14.3007 5.02699 14.5714C5.07974 14.8421 5.19883 15.0954 5.37358 15.3087C5.54834 15.5221 5.7733 15.6887 6.0283 15.7937C6.2833 15.8987 6.56037 15.9388 6.83467 15.9104C7.10897 15.8819 7.37193 15.7859 7.59999 15.6308C7.82804 15.4758 8.01405 15.2666 8.14135 15.0219C8.26865 14.7773 8.33326 14.5049 8.32938 14.2292V10.0625" stroke="#24AB70" stroke-opacity="0.54" stroke-width="2" stroke-linecap="round" stroke-linejoin="round"></path>
</g>
<defs>
<clipPath id="clip0_7134_1297">
<rect width="20" height="20" fill="white" transform="translate(-0.00393677 0.0625)"></rect>
</clipPath>
</defs>
</svg>