<svg width="25" height="25" viewBox="0 0 25 25" fill="none" xmlns="http://www.w3.org/2000/svg">
<path d="M18.0193 8.0625C18.0193 12.5625 12.0193 17.0625 12.0193 17.0625C12.0193 17.0625 6.01935 12.5625 6.01935 8.0625C6.01935 6.4712 6.65149 4.94508 7.77671 3.81986C8.90193 2.69464 10.428 2.0625 12.0193 2.0625C13.6106 2.0625 15.1368 2.69464 16.262 3.81986C17.3872 4.94508 18.0193 6.4712 18.0193 8.0625Z" stroke="#E7E7E7" stroke-width="2" stroke-linecap="round" stroke-linejoin="round"></path>
<path d="M12.0193 10.0625C13.1239 10.0625 14.0193 9.16707 14.0193 8.0625C14.0193 6.95793 13.1239 6.0625 12.0193 6.0625C10.9148 6.0625 10.0193 6.95793 10.0193 8.0625C10.0193 9.16707 10.9148 10.0625 12.0193 10.0625Z" stroke="#E7E7E7" stroke-width="2" stroke-linecap="round" stroke-linejoin="round"></path>
<path d="M8.85435 14.0625H5.01935C4.81588 14.0736 4.62066 14.1466 4.45981 14.2717C4.29897 14.3968 4.18018 14.568 4.11935 14.7625L2.11935 20.7625C2.01935 20.8625 2.01935 20.9625 2.01935 21.0625C2.01935 21.6625 2.41935 22.0625 3.01935 22.0625H21.0193C21.6193 22.0625 22.0193 21.6625 22.0193 21.0625C22.0193 20.9625 22.0193 20.8625 21.9193 20.7625L19.9193 14.7625C19.8585 14.568 19.7397 14.3968 19.5789 14.2717C19.418 14.1466 19.2228 14.0736 19.0193 14.0625H15.1843" stroke="#E7E7E7" stroke-width="2" stroke-linecap="round" stroke-linejoin="round"></path>
</svg>