<svg width="15" height="15" viewBox="0 0 15 15" fill="none" xmlns="http://www.w3.org/2000/svg">
<g clip-path="url(#clip0_7134_1277)">
<path d="M11.686 5.89584C11.686 9.39584 7.01935 12.8958 7.01935 12.8958C7.01935 12.8958 2.35268 9.39584 2.35268 5.89584C2.35268 4.65816 2.84435 3.47118 3.71952 2.59601C4.59469 1.72084 5.78167 1.22917 7.01935 1.22917C8.25703 1.22917 9.44401 1.72084 10.3192 2.59601C11.1944 3.47118 11.686 4.65816 11.686 5.89584Z" stroke="#DFA909" stroke-width="2" stroke-linecap="round" stroke-linejoin="round"></path>
<path d="M7.01935 7.64583C7.98585 7.64583 8.76935 6.86233 8.76935 5.89583C8.76935 4.92933 7.98585 4.14583 7.01935 4.14583C6.05285 4.14583 5.26935 4.92933 5.26935 5.89583C5.26935 6.86233 6.05285 7.64583 7.01935 7.64583Z" stroke="#DFA909" stroke-width="2" stroke-linecap="round" stroke-linejoin="round"></path>
</g>
<defs>
<clipPath id="clip0_7134_1277">
<rect width="14" height="14" fill="white" transform="translate(0.0193481 0.0625)"></rect>
</clipPath>
</defs>
</svg>